<?xml version="1.0" encoding="UTF-8" standalone="no"?> <svg id="Layer_1" data-name="Layer 1" xmlns="http://www.w3.org/2000/svg" viewBox="0 0 512 512"><title>Gold</title><polygon points="460.69 345.89 495.75 426.91 336.05 426.91 371.1 345.89 460.69 345.89" style="fill:#fedb41"/><polygon points="380.84 264.09 415.9 345.11 371.1 345.11 300.99 345.11 256.19 345.11 291.25 264.09 380.84 264.09" style="fill:#f4b844"/><polygon points="300.99 345.89 336.05 426.91 176.34 426.91 211.4 345.89 300.99 345.89" style="fill:#f4b844"/><polygon points="300.79 182.3 335.85 263.32 291.25 263.32 220.75 263.32 176.15 263.32 211.21 182.3 300.79 182.3" style="fill:#fedb41"/><polygon points="220.75 264.09 255.81 345.11 140.9 345.11 96.1 345.11 131.16 264.09 220.75 264.09" style="fill:#f4b844"/><polygon points="140.9 345.89 175.95 426.91 16.25 426.91 51.31 345.89 140.9 345.89" style="fill:#fedb41"/><path d="M468.032,342.768A7.95,7.95,0,0,0,460.69,338h-39.2l-33.311-77.077A8.093,8.093,0,0,0,380.84,256h-39.4l-33.306-77.072A8.1,8.1,0,0,0,300.79,174H211.21a8.1,8.1,0,0,0-7.342,4.928L170.562,256h-39.4a8.093,8.093,0,0,0-7.342,4.923L90.507,338H51.31a7.95,7.95,0,0,0-7.342,4.768L8.908,423.76A8.048,8.048,0,0,0,16.25,435h159.7c.066,0,.13-.011.2-.012s.129.012.195.012H495.75a8.047,8.047,0,0,0,7.342-11.217ZM336.049,406.654,312.832,353H359.26Zm-159.9.45L152.74,353h46.819ZM403.721,337H268.369l28.136-65h79.08ZM256,325.085,232.6,271H279.4ZM216.465,190h79.07l28.136,65H188.329Zm-80.05,82H215.5l28.136,65H108.279ZM28.429,419l28.136-65h79.079l28.129,65Zm160.09,0,28.136-65h79.08l28.136,65Zm159.708,0,28.129-65h79.079l28.136,65Z" style="fill:#083863"/><path d="M256,136a8,8,0,0,0,8-8V85a8,8,0,0,0-16,0v43A8,8,0,0,0,256,136Z" style="fill:#083863"/><path d="M417.6,192.08a7.977,7.977,0,0,0,5.656-2.342l29.98-29.97a8,8,0,0,0-11.312-11.316l-29.98,29.97A8,8,0,0,0,417.6,192.08Z" style="fill:#083863"/><path d="M87.744,189.738a8,8,0,0,0,11.312-11.316l-29.98-29.97a8,8,0,1,0-11.312,11.316Z" style="fill:#083863"/><path d="M155.149,147.839a8,8,0,0,0,14.622-6.5L152.551,102.6a8,8,0,1,0-14.621,6.5Z" style="fill:#083863"/><path d="M339.09,148.758a7.992,7.992,0,0,0,10.4-4.458l15.74-39.36A8,8,0,0,0,350.372,99l-15.74,39.36A8,8,0,0,0,339.09,148.758Z" style="fill:#083863"/></svg>