<?xml version="1.0" encoding="UTF-8" standalone="no"?>
<!-- Created with Inkscape (http://www.inkscape.org/) -->

<svg
   xmlns:dc="http://purl.org/dc/elements/1.1/"
   xmlns:cc="http://creativecommons.org/ns#"
   xmlns:rdf="http://www.w3.org/1999/02/22-rdf-syntax-ns#"
   xmlns:svg="http://www.w3.org/2000/svg"
   xmlns="http://www.w3.org/2000/svg"
   xmlns:sodipodi="http://sodipodi.sourceforge.net/DTD/sodipodi-0.dtd"
   xmlns:inkscape="http://www.inkscape.org/namespaces/inkscape"
   width="32"
   height="32"
   viewBox="0 0 32 32.000001"
   id="svg4244"
   version="1.1"
   inkscape:version="0.91 r13725"
   sodipodi:docname="16.svg">
  <defs
     id="defs4246" />
  <sodipodi:namedview
     id="base"
     pagecolor="#ffffff"
     bordercolor="#666666"
     borderopacity="1.0"
     inkscape:pageopacity="0.0"
     inkscape:pageshadow="2"
     inkscape:zoom="11.2"
     inkscape:cx="6.5419882"
     inkscape:cy="12.57937"
     inkscape:document-units="px"
     inkscape:current-layer="g4783"
     showgrid="true"
     units="px"
     inkscape:window-width="1366"
     inkscape:window-height="705"
     inkscape:window-x="-8"
     inkscape:window-y="-8"
     inkscape:window-maximized="1"
     inkscape:snap-bbox="true"
     inkscape:bbox-paths="true"
     inkscape:bbox-nodes="true"
     inkscape:snap-bbox-edge-midpoints="true"
     inkscape:snap-bbox-midpoints="true">
    <inkscape:grid
       type="xygrid"
       id="grid4252" />
  </sodipodi:namedview>
  <metadata
     id="metadata4249">
    <rdf:RDF>
      <cc:Work
         rdf:about="">
        <dc:format>image/svg+xml</dc:format>
        <dc:type
           rdf:resource="http://purl.org/dc/dcmitype/StillImage" />
        <dc:title></dc:title>
      </cc:Work>
    </rdf:RDF>
  </metadata>
  <g
     inkscape:label="Layer 1"
     inkscape:groupmode="layer"
     id="layer1"
     transform="translate(0,-1020.3622)">
    <g
       id="g4783"
       transform="translate(-4.2590071,-3.0333347)">
      <g
         id="g6729">
        <path
           id="rect5008"
           d="m 18.259007,1044.3955 4,0 0,10 -4,0 z"
           style="fill:#b48966;fill-opacity:1;stroke:none;stroke-width:3;stroke-linecap:round;stroke-linejoin:round;stroke-opacity:1" />
        <path
           style="fill:#00c379;fill-opacity:1;stroke:none;stroke-width:3;stroke-linecap:round;stroke-linejoin:round;stroke-opacity:1"
           d="m 20.692007,1024.6455 4.5,7 -0.433,0.75 -4.5,0 -4.5,0 -0.433,-0.75 4.5,-7 z"
           id="path5016"
           inkscape:connector-curvature="0"
           sodipodi:nodetypes="cccccccc" />
        <path
           inkscape:connector-curvature="0"
           style="fill:#00c379;fill-opacity:1;stroke:none;stroke-width:3;stroke-linecap:round;stroke-linejoin:round;stroke-opacity:1"
           d="m 19.825994,1024.6455 a 0.5,0.5 0 0 1 0.433013,-0.25 0.5,0.5 0 0 1 0.433013,0.25"
           id="path5018" />
        <path
           inkscape:connector-curvature="0"
           style="fill:#00c379;fill-opacity:1;stroke:none;stroke-width:3;stroke-linecap:round;stroke-linejoin:round;stroke-opacity:1"
           d="m 15.759007,1032.3955 a 0.5,0.5 0 0 1 -0.433013,-0.25 0.5,0.5 0 0 1 0,-0.5 l 0.433013,0.25 z"
           id="path5020" />
        <path
           inkscape:connector-curvature="0"
           style="fill:#00c379;fill-opacity:1;stroke:none;stroke-width:3;stroke-linecap:round;stroke-linejoin:round;stroke-opacity:1"
           d="m 24.759007,1032.3955 a 0.5,0.5 0 0 0 0.433013,-0.25 0.5,0.5 0 0 0 0,-0.5 l -0.433013,0.25 z"
           id="path5022" />
        <path
           sodipodi:nodetypes="cccccccc"
           inkscape:connector-curvature="0"
           id="path5028"
           d="m 20.865207,1028.5455 6.3,9.8 -0.6062,1.05 -6.3,0 -6.299999,0 -0.6062,-1.05 6.299999,-9.8 z"
           style="fill:#00c379;fill-opacity:1;stroke:none;stroke-width:3;stroke-linecap:round;stroke-linejoin:round;stroke-opacity:1" />
        <path
           id="path5030"
           d="m 19.652789,1028.5455 a 0.69999995,0.69999995 0 0 1 0.606218,-0.35 0.69999995,0.69999995 0 0 1 0.606218,0.35"
           style="fill:#00c379;fill-opacity:1;stroke:none;stroke-width:3;stroke-linecap:round;stroke-linejoin:round;stroke-opacity:1"
           inkscape:connector-curvature="0" />
        <path
           id="path5032"
           d="m 13.959008,1039.3955 a 0.69999995,0.69999995 0 0 1 -0.606219,-0.35 0.69999995,0.69999995 0 0 1 0,-0.7 l 0.606219,0.35 z"
           style="fill:#00c379;fill-opacity:1;stroke:none;stroke-width:3;stroke-linecap:round;stroke-linejoin:round;stroke-opacity:1"
           inkscape:connector-curvature="0" />
        <path
           id="path5034"
           d="m 26.559007,1039.3955 a 0.69999995,0.69999995 0 0 0 0.606218,-0.35 0.69999995,0.69999995 0 0 0 0,-0.7 l -0.606218,0.35 z"
           style="fill:#00c379;fill-opacity:1;stroke:none;stroke-width:3;stroke-linecap:round;stroke-linejoin:round;stroke-opacity:1"
           inkscape:connector-curvature="0" />
        <path
           style="fill:#00c379;fill-opacity:1;stroke:none;stroke-width:3;stroke-linecap:round;stroke-linejoin:round;stroke-opacity:1"
           d="m 21.038407,1032.4455 8.1,12.6 -0.7794,1.35 -8.1,0 -8.099999,0 -0.7794,-1.35 8.099999,-12.6 z"
           id="path5040"
           inkscape:connector-curvature="0"
           sodipodi:nodetypes="cccccccc" />
        <path
           inkscape:connector-curvature="0"
           style="fill:#00c379;fill-opacity:1;stroke:none;stroke-width:3;stroke-linecap:round;stroke-linejoin:round;stroke-opacity:1"
           d="m 19.479584,1032.4455 a 0.89999995,0.89999995 0 0 1 0.779423,-0.45 0.89999995,0.89999995 0 0 1 0.779423,0.45"
           id="path5042" />
        <path
           inkscape:connector-curvature="0"
           style="fill:#00c379;fill-opacity:1;stroke:none;stroke-width:3;stroke-linecap:round;stroke-linejoin:round;stroke-opacity:1"
           d="m 12.159008,1046.3955 a 0.89999995,0.89999995 0 0 1 -0.779424,-0.45 0.89999995,0.89999995 0 0 1 0,-0.9 l 0.779424,0.45 z"
           id="path5044" />
        <path
           inkscape:connector-curvature="0"
           style="fill:#00c379;fill-opacity:1;stroke:none;stroke-width:3;stroke-linecap:round;stroke-linejoin:round;stroke-opacity:1"
           d="m 28.359007,1046.3955 a 0.89999995,0.89999995 0 0 0 0.779423,-0.45 0.89999995,0.89999995 0 0 0 0,-0.9 l -0.779423,0.45 z"
           id="path5046" />
      </g>
    </g>
  </g>
</svg>
